<mxfile host="Electron" modified="2024-01-23T20:20:53.706Z" agent="Mozilla/5.0 (Windows NT 10.0; Win64; x64) AppleWebKit/537.36 (KHTML, like Gecko) draw.io/22.1.18 Chrome/120.0.6099.199 Electron/28.1.2 Safari/537.36" etag="lU2X4HmHyHZ78vu95UD7" version="22.1.18" type="device">
  <diagram name="Page-1" id="fnDP1J6Sq6PNQVspjEiE">
    <mxGraphModel dx="1020" dy="496" grid="1" gridSize="10" guides="1" tooltips="1" connect="1" arrows="1" fold="1" page="1" pageScale="1" pageWidth="850" pageHeight="1100" math="0" shadow="0">
      <root>
        <mxCell id="0" />
        <mxCell id="1" parent="0" />
        <mxCell id="H3vw3mD5ug8dyFds2y1B-16" value="" style="rounded=1;whiteSpace=wrap;html=1;" vertex="1" parent="1">
          <mxGeometry x="7" y="99.84" width="963" height="196.16" as="geometry" />
        </mxCell>
        <mxCell id="H3vw3mD5ug8dyFds2y1B-18" value="" style="edgeStyle=orthogonalEdgeStyle;rounded=0;orthogonalLoop=1;jettySize=auto;html=1;" edge="1" parent="1" source="H3vw3mD5ug8dyFds2y1B-1" target="H3vw3mD5ug8dyFds2y1B-2">
          <mxGeometry relative="1" as="geometry" />
        </mxCell>
        <mxCell id="H3vw3mD5ug8dyFds2y1B-1" value="Search on Google&#xa;for Linkedin profile" style="shape=image;verticalLabelPosition=bottom;labelBackgroundColor=default;verticalAlign=top;aspect=fixed;imageAspect=0;image=data:image/png,iVBORw0KGgoAAAANSUhEUgAAANgAAADpCAMAAABx2AnXAAAAjVBMVEX///9jYexhX+xcWutaWOtfXexXVetdW+tWVOtrae1UUuv6+v/Z2frNzfhmZO2Mi/Bta+2op/S+vvbDwvd4du66ufaZl/KjovP39/7z8v3S0fmtrPRzce7i4vucm/J2dO7q6vzn5/ySkfGFhPCzsvXd3fqBf++wr/SHhvCfnvLJyPjU1PmPjfFQTepKR+poCrdvAAAQ2klEQVR4nO2d53rquhKGY1nFiBJ6L4YAISSs+7+8g8GSZVkNZDvZ5+H7tTcrLq+sMpJmRm9vnpqu2vv1+3HTBQvh1yEIHlajuzm+r3uj9mrq+1K+as4nGxzBkCAAQOgLFlxvgggJIabBcHKOf4vq7XzCmGQA/mACIiIwIrtzs36qeIIwyr1MmWB3OoLhT7terO1PFMqvXjrYnS1Y1NfiZjtKii9RBVjCBnGvphq5gAqsysASNDSqAevQgOqXrgzsioYbq6q5JlT3yhWCXdHoZ6VYsw3UPrtSsCDAx1l1XAeI9E+uGCwg8FAV11lbDesAC0B0rojrYnzbysECcOlXwkXNj60eLAhoBWRzC1ctYMGldBNrFdletRYwEJU8oE2B9U1rAbva/eWajkOlFfULYAEZlsn1ie1PrAkswAvtaz6sla3jqBMsoOUN1EuDwVE/GGiUxdV3qIg1ggVwXxKYvUesFwzAcuzhvd6i/x2wgIxLAdNMLH8RLKBxCVwjtw9WKxjZlQDWcHzHOsEC7N/KWpHjs2oFg/4rBevQ7VEg6glXOY182bUohPgqGCLHAgGBN1hhYVQphMlkK1zVx3bjkr1jSMOfz/P3oTU/904wIk4PjL49uZxqIog+5tJ1zZ11nnO/FHcWYom8HSbIpRv27vEnDiUPuyrrra1eV5WwGop1jD6wd8QAeIJ1raUHIk1Dnn7YTDEENVP9nv1ze844Z1YzESG9sd0zzwrgUNtpr7q2z+1pMH5bC71jGlH6pgU7+GN68tHSG6OTF5jNTgRGrmtDw1oyuDY/2jJp92xkP5bxiG4tN9AuboXvliubgbmd+dmLS/PNo4H1Dn01Gehar7TM27E8wjwk85CCPhxuMVY2FpdObWAkgz6bZrG50KwV8aaOonCIpYHdtTN1IGTiAdYydorE2K1xtRXGS+S2OmiaWSBbIzXpbOwUXZeLig3VtbRXNCQ6wc3zXOZJJlg63qVd+O6RUx2+qj/Wy6k2a9QzVfKwZ7/BXfJqkHORVCbjZAw7zxzG0ljrXiRVaWca/d0XwfpSjfYbgsrQh8HwAMj5NgepkZWyyOSloQnMvaHEMtgvOH/lZbKokPt+zlSqirTCV3aTaZqJjs63kWd1vw+msoae+GKFqljhK7vJNHN4oI2t/lznYQRzX9obyN19q8J3dpIRLHTe5paXurxmHKXI1MbcDb5CH+S+XvEFOlr5bGwawZzLfSvP6gB0/NhbCvTqPI1lAXPuPdYFw0y3nijLaCBUBua6fj4tTsMdX8q4+V0hmOMnk237RNjlk82MKy5eYJZNP2xfpNJsawDi0MpMFbFaMJft+6ba54DYO8Yv82JtlWABsldG3YIutu1JahYkywGz7rWElpXFpn4Jnprrcdvm5lQtWACNNv5saZiCU9N+ie17VQ4WkEasvbwdGpt/9KW9cmF3S6saLACRpuTjk9Hr+yq4VFtls6OD91blYNf36yhGpdUusm/VouhLsUrQDl125msAu3b78KslvuFq31UFLClE6FpaT46Ptg9dH1gy4EZkuN4PzoP+fvIRUEf/qxta1BG71hZ1dBGpByy4hR+GMBFx9ULhV4qrVsX18N8G8xB8gQl6gb3AytcLTNQL7AVWvl5gol5gL7Dy9QIT9QJ7gZWvF5ioGsFQGD61NPCnwQDBdLhe9M+D/eQEi6mCDFeG+J8AZknVUDMYgHAnZgE49Bp6v/ScULRctHJbSqPQLf6pBjAAg35hu6u9dIjaAfS96KU6XTutwFUPRjS77OeOrehhQ+18G3+4FErVYIZkNmOLE7h+U+Js3s6oA8yYfsgY22LcIJsObaFWFYNZ8tgYtu+oJefIuzWspkqwiy0/j3YDL7K6v3yYm2ilYJbt1kQTdcG7RDKbI1irBMMu3tjK1wPAwXs2No6FFYI5uDRctVX5eWCnFFPG6DUvMEANujjeWRGO5JqSw+hW6AM2kzSdPuF/PSv2H9DFpefNHILiBVaO3uVWBohj+UwNUdh/AKwwE3GMz3pTlIkAVlqGmafVlHekXWti0ZtYBLMHQ1Yu2Y3N3elW2aWmYL8e0lR0dnb3u5/qUyr8BTCpcwPE/VK9/90DAQ2VSYqIfKTZ66NrHghBqUzzfLf4CNhGD+YXk1+K2tIXeyCaXv/FSkkI5Cm5034gaEfvbh3q5992nQcmOSeXk2NYqXMQ5FQ/J/MK9GxgqBd1rgtyRKR72OpKP455JfQwOogD1wjrprx86l7YBivYNdpCqaNxDutaowrZTtytIUP0q1dorjFc2NnkK1qykWPzVESPZGA++SPNOY6QW11UzMdcu2rTfMy9B1LIklnGLWpHFdviljDDNIMG0IPLtqfjECih6djcDD3jBNrLBjb0tje55JZTl7o1AuTNEo3kZ1E1bevM1Joh5qRppg7JQD5MLdwzEYM50inZtYvNNxjrigYEtkArc3Ji6Jcj/svmPQ+QkWynfzlkiB1JZIlucZ+FK3W27ggDoq9TzaOpKiNo2pYYmbkemayqZM/9ZjjHYhtYthXoKdY9eGzptpwyR5m0cdg1hUvleNa3h0sQvFYOs62GdTPUNwmyU85ZRJeF85m2R6fMkYTuCh3rwRrG5NIdW2RJucUEMBqLjzq/R65ZTAndiKUf95YOl5aQw9Rs4AuPyidndUzpehO6POznQXymz+mDXD1lPNLpPu6Z4zo9MMmSDfBXwEpZ3nbMMZ63cSoGKyUxfGFL4Q+A0VJOzHBNC18fWOiTgTCTJqj+98BACSnGbzo75RmvD6ykD/Zmn7zUCwbgExvhapkdLuoGK/O0rpFDZawLjPja9Tmd7CZSTWAAl3o4UrNrbWY1gVHfRPeS7M2sHjBdqvbndbBNr2oBg+Wc2JLT3DL7qwMMltpx8EeayWoAq4bL9s2qB8M+uZyNWpl8qyufjxmcvr1l8q2uGAzYnYi99FXFIbwOYLBT9fnCc90qaJVggPok3nZUUxN6Uh0YgI16coOujqqVv6rAQFjCCU+uag2LSYyqAUuOXK/vNPmrDjssLfJUAAYI7oxqxUo0HW2oePB12WBXqnBcsinvqu3oFEUsJrM8MABIiGlj8v2ruchXg69jB9IIX0STqkvxA8rFaP6Lgs3u87v2GqjUNF61WrHww6H1kIQrZ6vZryeNf+mll1566aWXXnrppf+QVsysrnpNq259pNMlKgSXNbfzwX5yVW9/nq+eCXj+A2KxC/xkw3h/RBGGMDkVMIQQRxFYfkzOcZ0vNQINpm63+1zBSmDTHYVyziUAEKlytbyoIxEOZYmei1zJg22RZnG31qN+8l664XNLvzmwKdDtoWBLkpRSlY9QBeFTN8mB6Y9e9Dwl+7l3Ys9+yiNRBDMkKvAK+HlQspNdbjXPWSKYVAWA4BKGy357g6SQ4ieDct7TDijJoZIdyQQgTSBDSq89f4gAqjNNQaFB4PiJu4yXqXaCNzMI+2nVm21b/c/3pe1QllLF4oJ5hfHuknlenEIYzLTGJsYCukBnkn4675B7HkIdlfKGT2rBcD62rLH5+scyL20XH/3VeTEZjyejeWz+u1lfuQW56vfGvZHyn1i9uVZAlunCEkgVn3vr8aKtfxMOZstB0xp3Ing7eBpi3M23gOX92L3wVnm/3+FlL/588xOa/wTJ5SGMQK9gCPKADLp9+0kbvRyh2r+d99e4xXVtF8tr/3YVxkdxwNuxAwB/xFZrxIqPVEwaAmCuQBuIW3jnboRA6s2S/kybbyOE+eUAInnkZ+cPJy/B/xs1pb+53Qz23g4fNIsZRxfBk1bs7nkqEGNqg29cSFVEhRumNwn3392bmxwZiz+TdTc//AIshbWxQO7ERORfTzpuMwUGXXl3XzhjSRygeWIJU4z7QeXeIQSOsdJBKUAa3sV+LiSIkYbIKeO+WaesvUkBLPxLFra/s8R/IlgWlQN72v5dHQeSRTPLGWBSu0GfGCZ/ih7fn72dQ8lMBqnVy8dlC0/jfyiCCWGYIR4ulPuji+yeos2V5ZcqgCELWD4QmsWA33/lmPkgMT1YELFKq7UVUYjhsVfokDkLwMFwCLhZxz37CwRQ8TMgQpXMGdisK7j3ObxihjkHjzwYIILHGq+0Ruv+Cgd+cmMIT+8A0G1iy8uCJ90rfLH7ews/A4iH43HAq4cYecoPbkwTfTA//3xiDRGMRMvx15AXMLeYc/MxRWpHQDAU/EaYWRDAVf4ZvKSkTwPDXTP/M+wObr+8MzJxWsJyNbD8AZ/seTlDOANDeHL7hxYvcHYgcA6s2VUFO4MwG6hO7M+Z+cbSUfCWIoIBDJjXCf+Zew3xU8qJ4N3LukEWKntgXzDXUXMwNGS8PHtFNFOAvTXVcaKALqQHEz5yMZOVTeAzMAA7WYfHu/vMVYKNLihLbMfPweYGPVtZyiUU4GDZgMsncVGsAkvSMFNVLrJL2osEubYtgPFncDCUm200Chdy1xaU+cHyOC4+fLD3yx1DnIHxjjsD26rBrtV10sFQhmNpLXgBHj8XN+1ZFZDB0DFnkqvA2KNPhZ+yRFycQVxOeg7squ1gvIlwDi79wtwwQ2Eq9gcyGMlHQDmB8QwthC+58amL2BKfBrs9ZD5pCFZhWmD6JO9lgPF0XEJWJ3ahmFLACyxR65gNNvcGow/5exzsWADj626kN2LiTmaCIWwEWzmACQkG0hcygDW9wYSsVYQn8+I/CVeawLAbGLcs0lqvP0uhBDB53S0vIeK5BLCD1HZBofNguviDFU9kzylLSFICGM8BlM7OAe/MF728Jg+DDeVHm48/F2K5S2hj3KRJv1hxgJb1PNjBlpGEz2+8e0XBmk83c/jwq93bcQdjKS7Zoz9tQZJ8FU4B9m0Cmxa3VHg+xPSFjrIR7AHGvj5bg8pSXqKcsnkBMz0VYPwnla04/9cYD2LxdVa8t02taw4KdamFbGB8jpJ1uPcZT8xrIhjmxIG5tawwgrPZg2La0gsBgRQO1/vz/Pv7uz0SjuBIbYHMZTzg42UzPi+WffkJGrAAnBbtQxyv9lmZ3cf+kTSyZGKGFl+F42BguR7ND9t4zsdbbmUWF3MAuo6OiSMBFH3p4X2aw+fq17lW5+O0+zkNuyGFIeQYNrBkWh5FkRCEkC5T8ASKhXVfvsjELK1sognI/VX5m/I2IoIZUiTwvxcS7gGESNIEgPjvdjBZaVx9VmSFlfrCtzQs5vAxQQAzZLsOKNu616QEypb7HwZL35Ynrimm7+ODKXuKAezCVoYEsLP+z4Xg972ajMbPgqXdGE+5qRgi+cidrsLpwUI+uRHAvvR/3hVqx1pJxueBj4KxOG1eE3FxD2YsrftowVCH9/8CWHtTdF65/RN9zy2djoqLBwBRVs6PgfEAvmyZCRXXac9ZL2gEC4WMgTnLIx4dSZTsObP7gGTZ9EMuwngcChsm1040QqcRq9sByx2cX27nYCS5//1/kigj1gN+0fS6SLErPLuwScxlmweDkLAuDxB6EirWKbpfgdP7NQ/99RDQ6Ha6B+z+LOaqVfzp+WuJk7+JomA4Hh2EQuYzxLynEP+Q63nvfXM/U6SzG2SWA79O5dUx4P+6yoHB7/1ug5J7RbT7lTOczuyK/OCRnPNhc86aJn9k+ZsCGOsamrPm8151BcujOatxkzwvha34vBS24q/pBeaiF1gNeoG56AVWgyoCK+Fmnvr/B3vKXVTS3wMDAJYIBsClhJt5qpE4lEWwsSkjD10fk/B6t2D5B84OGv70+vNtSZ3Y4Ljenw+udu//APbpL77sJU0oAAAAAElFTkSuQmCC;" vertex="1" parent="1">
          <mxGeometry x="190" y="152.89" width="86" height="92.77" as="geometry" />
        </mxCell>
        <mxCell id="H3vw3mD5ug8dyFds2y1B-19" value="" style="edgeStyle=orthogonalEdgeStyle;rounded=0;orthogonalLoop=1;jettySize=auto;html=1;" edge="1" parent="1" source="H3vw3mD5ug8dyFds2y1B-2" target="H3vw3mD5ug8dyFds2y1B-6">
          <mxGeometry relative="1" as="geometry" />
        </mxCell>
        <mxCell id="H3vw3mD5ug8dyFds2y1B-2" value="Fetch data (json obj) of that profile" style="shape=image;verticalLabelPosition=bottom;labelBackgroundColor=default;verticalAlign=top;aspect=fixed;imageAspect=0;image=https://nubela.co/proxycurl/media/imgs/Proxycurl-Logotype-Primary-No%20Nubela.png;" vertex="1" parent="1">
          <mxGeometry x="339" y="166.89" width="260" height="65" as="geometry" />
        </mxCell>
        <mxCell id="H3vw3mD5ug8dyFds2y1B-17" value="" style="edgeStyle=orthogonalEdgeStyle;rounded=0;orthogonalLoop=1;jettySize=auto;html=1;" edge="1" parent="1" source="H3vw3mD5ug8dyFds2y1B-3" target="H3vw3mD5ug8dyFds2y1B-1">
          <mxGeometry relative="1" as="geometry" />
        </mxCell>
        <mxCell id="H3vw3mD5ug8dyFds2y1B-3" value="Person Name" style="image;sketch=0;aspect=fixed;html=1;points=[];align=center;fontSize=12;image=img/lib/mscae/Person.svg;" vertex="1" parent="1">
          <mxGeometry x="60" y="154.12" width="67" height="90.54" as="geometry" />
        </mxCell>
        <mxCell id="H3vw3mD5ug8dyFds2y1B-13" style="edgeStyle=orthogonalEdgeStyle;rounded=0;orthogonalLoop=1;jettySize=auto;html=1;entryX=0;entryY=0.5;entryDx=0;entryDy=0;" edge="1" parent="1" source="H3vw3mD5ug8dyFds2y1B-6" target="H3vw3mD5ug8dyFds2y1B-7">
          <mxGeometry relative="1" as="geometry" />
        </mxCell>
        <mxCell id="H3vw3mD5ug8dyFds2y1B-14" style="edgeStyle=orthogonalEdgeStyle;rounded=0;orthogonalLoop=1;jettySize=auto;html=1;entryX=0;entryY=0.5;entryDx=0;entryDy=0;" edge="1" parent="1" source="H3vw3mD5ug8dyFds2y1B-6" target="H3vw3mD5ug8dyFds2y1B-12">
          <mxGeometry relative="1" as="geometry" />
        </mxCell>
        <mxCell id="H3vw3mD5ug8dyFds2y1B-15" style="edgeStyle=orthogonalEdgeStyle;rounded=0;orthogonalLoop=1;jettySize=auto;html=1;entryX=0;entryY=0.5;entryDx=0;entryDy=0;" edge="1" parent="1" source="H3vw3mD5ug8dyFds2y1B-6" target="H3vw3mD5ug8dyFds2y1B-11">
          <mxGeometry relative="1" as="geometry" />
        </mxCell>
        <mxCell id="H3vw3mD5ug8dyFds2y1B-6" value="Prompt Engineering to getÂ &#xa;insights on the profile" style="shape=image;verticalLabelPosition=bottom;labelBackgroundColor=default;verticalAlign=top;aspect=fixed;imageAspect=0;image=https://t3.ftcdn.net/jpg/05/03/39/42/360_F_503394240_euEwLUEehr9Eb3ynICoTH2Qd3MkL7lN2.jpg;clipPath=inset(20.33% 19.67% 25.67% 18%);" vertex="1" parent="1">
          <mxGeometry x="640" y="151.12" width="110" height="95.29" as="geometry" />
        </mxCell>
        <mxCell id="H3vw3mD5ug8dyFds2y1B-7" value="3 interesting facts" style="rounded=1;whiteSpace=wrap;html=1;verticalAlign=top;labelBackgroundColor=default;fillColor=#d5e8d4;strokeColor=#82b366;" vertex="1" parent="1">
          <mxGeometry x="830" y="130.79" width="130" height="26.1" as="geometry" />
        </mxCell>
        <mxCell id="H3vw3mD5ug8dyFds2y1B-11" value="Experience / Industry" style="rounded=1;whiteSpace=wrap;html=1;verticalAlign=top;labelBackgroundColor=default;fillColor=#dae8fc;strokeColor=#6c8ebf;" vertex="1" parent="1">
          <mxGeometry x="830" y="186.22" width="130" height="26.1" as="geometry" />
        </mxCell>
        <mxCell id="H3vw3mD5ug8dyFds2y1B-12" value="Ice-breaking summary" style="rounded=1;whiteSpace=wrap;html=1;verticalAlign=top;labelBackgroundColor=default;fillColor=#f8cecc;strokeColor=#b85450;" vertex="1" parent="1">
          <mxGeometry x="830" y="240" width="130" height="26.1" as="geometry" />
        </mxCell>
        <mxCell id="H3vw3mD5ug8dyFds2y1B-20" value="Lets get you insights for your next Sales leed&lt;br&gt;Give me the name of the person you wanna reach out to and this app you bring the needful information for you to get started" style="text;html=1;strokeColor=none;fillColor=none;align=left;verticalAlign=middle;whiteSpace=wrap;rounded=0;" vertex="1" parent="1">
          <mxGeometry x="40" y="110" width="690" height="30" as="geometry" />
        </mxCell>
      </root>
    </mxGraphModel>
  </diagram>
</mxfile>
